<svg xmlns="http://www.w3.org/2000/svg" width="20" height="20" fill="currentColor"><path fill="currentColor" d="M.415 9.84 8.939.818 9.51.214A.676.676 0 0 1 10 0c.184 0 .36.077.49.214l9.095 9.625c.134.141.239.309.31.493.072.185.107.383.105.582-.009.822-.655 1.478-1.432 1.478h-.937V20H2.369v-7.608h-.957c-.377 0-.733-.156-1-.439a1.494 1.494 0 0 1-.306-.485A1.562 1.562 0 0 1 0 10.895c0-.397.148-.773.415-1.056Zm8.35 8.478h2.47v-4.765h-2.47v4.765Zm-4.807-7.607v7.607h3.395v-5.325c0-.517.395-.935.882-.935h3.53c.487 0 .882.418.882.935v5.325h3.395v-7.607h2.118L9.998 2.075l-.51.54-7.65 8.096h2.12Z"/></svg>