<svg xmlns="http://www.w3.org/2000/svg" width="20" height="20" fill="currentColor"><g fill="currentColor" clip-path="url(#a)"><path d="M8.333 6.667h5v1.11h-5v-1.11ZM8.333 8.889h5V10h-5V8.889ZM8.333 11.111h5v1.111h-5v-1.11ZM8.333 13.333h5v1.111h-5v-1.11ZM6.111 4.444h1.111v1.112h-1.11V4.444ZM6.111 6.667h1.111v1.11h-1.11v-1.11ZM6.111 8.889h1.111V10h-1.11V8.889ZM6.111 11.111h1.111v1.111h-1.11v-1.11ZM6.111 13.333h1.111v1.111h-1.11v-1.11ZM8.333 4.444v1.112h4.811a4.14 4.14 0 0 1-.494-1.112H8.333Z"/><path d="M15.556 7.344v10.434H4.444V2.222h8.212a4.14 4.14 0 0 1 .488-1.11h-8.7a1.111 1.111 0 0 0-1.11 1.11v15.556a1.111 1.111 0 0 0 1.11 1.11h11.111a1.111 1.111 0 0 0 1.112-1.11V7.5a4.162 4.162 0 0 1-1.112-.156Z"/><path d="M16.667 6.111a2.778 2.778 0 1 0 0-5.555 2.778 2.778 0 0 0 0 5.555Z"/></g><defs><clipPath id="a"><path d="M0 0h20v20H0z"/></clipPath></defs></svg>