<svg xmlns="http://www.w3.org/2000/svg" width="40" height="41" fill="none"><g fill="currentColor" clip-path="url(#a)"><path d="M33.53 23.702a10.83 10.83 0 0 1-3.177 7.662 10.854 10.854 0 0 1-14.1 1.066L31.42 17.279a10.803 10.803 0 0 1 2.11 6.423ZM33.392 31.346l2.269-5.457L40 30.892l-6.608.453ZM35.66 21.574l-2.248-5.477 6.588.472-4.34 5.005ZM24.852 36.666l5.464-2.266-.474 6.6-4.99-4.334ZM15.05 34.4l5.463 2.266-4.99 4.314-.474-6.58ZM33.669 4l2.82 2.817L5.78 37.493l-2.82-2.817L33.669 4Z"/><path fill-rule="evenodd" d="m18.56 6.955 2.92 1.832-1.007-3.29 2.663-2.226-3.412-.06L18.402 0l-1.144 3.25-3.451.237 2.741 2.089-.828 3.349 2.84-1.97Zm-5.878 7.506L14.97 15.9l-.789-2.581 2.072-1.715-2.683-.059-1.006-2.502-.887 2.542-2.683.177 2.15 1.635-.67 2.601 2.208-1.537Z" clip-rule="evenodd"/><path d="M10.848 1.044A12.872 12.872 0 0 0 4.931 11.88c0 4.571 2.387 8.57 5.976 10.836C4.852 22.716 0 17.87 0 11.88a10.83 10.83 0 0 1 3.177-7.662 10.854 10.854 0 0 1 7.671-3.174Z"/></g><defs><clipPath id="a"><path fill="none" d="M0 0h40v41H0z"/></clipPath></defs></svg>